<svg width="24" height="24" viewBox="0 0 24 24" fill="none" xmlns="http://www.w3.org/2000/svg">
<g id="facebook" clip-path="url(#clip0_526_905)">
<path id="Vector" d="M24.001 12.0738C24.001 5.40481 18.628 -0.00119019 12.001 -0.00119019C5.37105 0.000309815 -0.00195312 5.40481 -0.00195312 12.0753C-0.00195312 18.1008 4.38705 23.0958 10.123 24.0018V15.5643H7.07805V12.0753H10.126V9.41281C10.126 6.38731 11.9185 4.71631 14.659 4.71631C15.973 4.71631 17.3455 4.95181 17.3455 4.95181V7.92181H15.832C14.3425 7.92181 13.8775 8.85331 13.8775 9.80881V12.0738H17.2045L16.6735 15.5628H13.876V24.0003C19.612 23.0943 24.001 18.0993 24.001 12.0738Z" fill="#09090B"/>
</g>
<defs>
<clipPath id="clip0_526_905">
<rect width="24" height="24" fill="white"/>
</clipPath>
</defs>
</svg>
