<svg width="17" height="17" viewBox="0 0 17 17" fill="none" xmlns="http://www.w3.org/2000/svg">
<path d="M14.8338 9.2232C14.9788 7.95376 14.7389 6.67005 14.1454 5.53859C13.5519 4.40713 12.6321 3.48012 11.5052 2.8778C10.3784 2.27549 9.09663 2.02566 7.8261 2.16072C6.55557 2.29579 5.35494 2.80951 4.37994 3.63526C3.40494 4.46101 2.70056 5.56068 2.35817 6.79164C2.01577 8.02259 2.05116 9.32803 2.45975 10.5386C2.86833 11.7492 3.63126 12.8091 4.64957 13.5808C5.66788 14.3525 6.89458 14.8005 8.17056 14.8665" stroke="white" stroke-width="1.2" stroke-linecap="round" stroke-linejoin="round"/>
<path d="M8.5 4.95831V8.49998L10.625 10.625" stroke="white" stroke-width="1.2" stroke-linecap="round" stroke-linejoin="round"/>
<path d="M11 13.4167L12.4167 14.8333L15.25 12" stroke="white" stroke-width="1.2" stroke-linecap="round" stroke-linejoin="round"/>
</svg>
