<svg width="20" height="33" viewBox="0 0 20 33" fill="none" xmlns="http://www.w3.org/2000/svg">
<path d="M1 28.5H0.5V29H1V28.5ZM19.3536 28.8536C19.5488 28.6583 19.5488 28.3417 19.3536 28.1464L16.1716 24.9645C15.9763 24.7692 15.6597 24.7692 15.4645 24.9645C15.2692 25.1597 15.2692 25.4763 15.4645 25.6716L18.2929 28.5L15.4645 31.3284C15.2692 31.5237 15.2692 31.8403 15.4645 32.0355C15.6597 32.2308 15.9763 32.2308 16.1716 32.0355L19.3536 28.8536ZM0.5 0.5V28.5H1.5V0.5H0.5ZM1 29H19V28H1V29Z" fill="#09090B"/>
</svg>
