<svg width="193" height="39" viewBox="0 0 193 39" fill="none" xmlns="http://www.w3.org/2000/svg">
<path d="M69.7708 1.13972C68.9062 1.13972 68.1071 1.27072 67.3734 1.53273C66.666 1.76853 66.0503 2.13534 65.5263 2.63315C65.0023 3.10476 64.5831 3.69427 64.2687 4.40168C63.9805 5.08289 63.8364 5.8689 63.8364 6.75972C63.8364 8.06974 64.1377 9.18326 64.7403 10.1003C65.3691 11.0173 66.1813 11.8164 67.1769 12.4976C68.1988 13.1788 69.3516 13.7945 70.6354 14.3448C71.9454 14.8688 73.2685 15.4059 74.6048 15.9561C75.9672 16.5063 77.2903 17.1089 78.5741 17.7639C79.8842 18.4189 81.037 19.2049 82.0326 20.122C83.0544 21.0128 83.8666 22.087 84.4692 23.3446C85.098 24.576 85.4125 26.0695 85.4125 27.8249C85.4125 29.9209 84.967 31.6502 84.0762 33.0126C83.2116 34.3488 82.0719 35.4099 80.6571 36.1959C79.2422 36.9819 77.6571 37.5322 75.9017 37.8466C74.1725 38.161 72.4432 38.3182 70.714 38.3182C69.8494 38.3182 68.8669 38.2658 67.7664 38.161C66.6922 38.0824 65.5918 37.9252 64.4652 37.6894C63.3386 37.4536 62.225 37.1391 61.1246 36.7461C60.0504 36.3269 59.0941 35.816 58.2557 35.2134C57.4173 34.5846 56.7361 33.851 56.212 33.0126C55.7142 32.148 55.4653 31.1392 55.4653 29.9864C55.4653 29.3052 55.5701 28.6764 55.7797 28.1C56.0155 27.5236 56.3299 27.0127 56.723 26.5673C57.1422 26.1219 57.64 25.7812 58.2164 25.5454C58.7928 25.2834 59.4216 25.1524 60.1028 25.1524C61.1508 25.1524 62.0023 25.4799 62.6574 26.135C63.3386 26.7638 63.6792 27.6153 63.6792 28.6895C63.6792 29.9471 63.8233 31.0999 64.1115 32.148C64.3997 33.1698 64.8451 34.0606 65.4477 34.8204C66.0503 35.554 66.8232 36.1304 67.7664 36.5496C68.7097 36.9426 69.8494 37.1391 71.1856 37.1391C72.0764 37.1391 72.9017 36.995 73.6615 36.7068C74.4214 36.4186 75.0764 36.0125 75.6266 35.4885C76.203 34.9645 76.6484 34.3357 76.9628 33.6021C77.2772 32.8423 77.4344 32.0039 77.4344 31.0868C77.4344 29.803 77.1331 28.6895 76.5305 27.7463C75.9279 26.8031 75.1288 25.9647 74.1332 25.231C73.1375 24.4974 71.9978 23.8293 70.714 23.2267C69.4564 22.6241 68.1595 22.0215 66.8232 21.4189C65.5132 20.8163 64.2163 20.1875 62.9325 19.5324C61.6748 18.8774 60.5482 18.1176 59.5526 17.253C58.557 16.3884 57.7579 15.3928 57.1553 14.2662C56.5527 13.1133 56.2513 11.7771 56.2513 10.2575C56.2513 8.16145 56.7099 6.44531 57.6269 5.10909C58.5439 3.77287 59.7229 2.72485 61.1639 1.96503C62.605 1.20522 64.2032 0.694314 65.9586 0.432309C67.7402 0.144103 69.4957 0 71.2249 0C72.1943 0 73.2423 0.0786021 74.369 0.235806C75.4956 0.366808 76.596 0.615713 77.6702 0.982519C78.7444 1.32313 79.7401 1.79473 80.6571 2.39734C81.5741 2.97375 82.3077 3.70737 82.8579 4.59818C83.1723 5.09599 83.4343 5.62 83.6439 6.17021C83.8797 6.72042 83.9976 7.29683 83.9976 7.89944C83.9976 8.94746 83.6439 9.77277 82.9365 10.3754C82.2291 10.9518 81.3776 11.24 80.382 11.24C79.2291 11.24 78.3645 10.9911 77.7881 10.4933C77.2117 9.99547 76.7532 9.37976 76.4126 8.64615C76.0982 7.88634 75.8362 7.07412 75.6266 6.20951C75.417 5.31869 75.1026 4.50648 74.6834 3.77287C74.2904 3.01305 73.7139 2.38424 72.9541 1.88644C72.2205 1.38863 71.1594 1.13972 69.7708 1.13972Z" fill="white"/>
<path d="M88.2489 32.3052C88.2489 31.0475 88.4978 29.9733 88.9956 29.0825C89.4934 28.1917 90.1484 27.445 90.9606 26.8424C91.7728 26.2136 92.6898 25.7289 93.7116 25.3882C94.7597 25.0214 95.8208 24.7463 96.895 24.5629C97.6548 24.4319 98.3622 24.2616 99.0172 24.052C99.6722 23.8162 100.236 23.5018 100.707 23.1088C101.205 22.6896 101.585 22.1787 101.847 21.5761C102.135 20.9735 102.279 20.2399 102.279 19.3752C102.279 18.8774 102.214 18.3796 102.083 17.8818C101.978 17.384 101.794 16.9386 101.532 16.5456C101.297 16.1526 100.982 15.8382 100.589 15.6024C100.196 15.3404 99.7116 15.2094 99.1351 15.2094C98.1657 15.2094 97.3666 15.4714 96.7378 15.9954C96.109 16.4932 95.7946 17.253 95.7946 18.2748C95.7946 18.7726 95.8732 19.2442 96.0304 19.6896C96.2138 20.1089 96.3055 20.5543 96.3055 21.0259C96.3055 21.4451 96.2007 21.825 95.9911 22.1656C95.7815 22.48 95.5064 22.742 95.1658 22.9516C94.8252 23.1612 94.4453 23.3184 94.0261 23.4232C93.633 23.528 93.2531 23.5804 92.8863 23.5804C91.9431 23.5804 91.1178 23.2791 90.4104 22.6765C89.7292 22.0739 89.3886 21.2748 89.3886 20.2792C89.3886 19.0739 89.7554 18.0783 90.489 17.2923C91.2488 16.4801 92.1658 15.8382 93.24 15.3666C94.3405 14.8688 95.4933 14.5282 96.6985 14.3448C97.9037 14.1351 98.9779 14.0303 99.9212 14.0303C101.179 14.0303 102.397 14.1613 103.576 14.4234C104.781 14.6592 105.829 15.0784 106.72 15.681C107.637 16.2574 108.371 17.0434 108.921 18.039C109.471 19.0084 109.746 20.2268 109.746 21.694V31.5191C109.746 31.8074 109.773 32.1087 109.825 32.4231C109.904 32.7375 110.008 33.0257 110.139 33.2877C110.297 33.5497 110.493 33.7724 110.729 33.9558C110.965 34.113 111.253 34.1916 111.593 34.1916C111.986 34.1916 112.34 34.0737 112.655 33.8379C112.995 33.6021 113.27 33.327 113.48 33.0126L114.069 33.327C113.572 34.9252 112.694 36.1042 111.436 36.864C110.205 37.6239 108.777 38.0038 107.152 38.0038C106.209 38.0038 105.292 37.8335 104.401 37.4929C103.511 37.1522 102.869 36.4972 102.476 35.5278C101.925 35.816 101.362 36.1304 100.786 36.471C100.209 36.8116 99.6199 37.126 99.0172 37.4143C98.4146 37.6763 97.7989 37.899 97.1701 38.0824C96.5675 38.2658 95.9387 38.3575 95.2837 38.3575C94.3143 38.3575 93.3972 38.2396 92.5326 38.0038C91.6942 37.7942 90.9475 37.4405 90.2925 36.9426C89.6637 36.4448 89.1659 35.816 88.7991 35.0562C88.4323 34.2964 88.2489 33.3794 88.2489 32.3052ZM99.646 35.0955C100.144 35.0955 100.602 35.0038 101.022 34.8204C101.467 34.6108 101.886 34.3619 102.279 34.0737V24.0127C101.415 24.2485 100.602 24.576 99.8426 24.9952C99.1089 25.3882 98.467 25.873 97.9168 26.4494C97.3666 26.9996 96.9212 27.6546 96.5806 28.4144C96.2662 29.1742 96.109 30.0388 96.109 31.0082C96.109 32.1087 96.3972 33.065 96.9736 33.8772C97.55 34.6894 98.4408 35.0955 99.646 35.0955Z" fill="white"/>
<path d="M117.317 8.72475C117.317 7.86014 117.055 7.15273 116.531 6.60252C116.033 6.02611 115.378 5.62 114.566 5.3842V4.59818C115.038 4.54578 115.732 4.36238 116.649 4.04797C117.592 3.70737 118.549 3.32746 119.518 2.90825C120.514 2.46284 121.431 2.00434 122.269 1.53273C123.108 1.06112 123.684 0.655013 123.998 0.314407L124.784 0.628813V16.7421C125.099 16.2443 125.479 15.8251 125.924 15.4845C126.369 15.1439 126.854 14.8688 127.378 14.6592C127.902 14.4234 128.439 14.2661 128.99 14.1875C129.566 14.0827 130.129 14.0303 130.679 14.0303C132.54 14.0303 134.151 14.3448 135.513 14.9736C136.902 15.5762 138.042 16.4146 138.933 17.4888C139.85 18.563 140.531 19.8468 140.976 21.3403C141.448 22.8075 141.684 24.4057 141.684 26.135C141.684 27.9428 141.435 29.5934 140.937 31.0868C140.439 32.5803 139.706 33.8641 138.736 34.9383C137.767 36.0125 136.561 36.8509 135.12 37.4536C133.706 38.03 132.068 38.3182 130.208 38.3182C128.872 38.3182 127.588 38.1348 126.356 37.768C125.125 37.4012 124.011 36.7723 123.016 35.8815L117.828 38.0038H117.317V8.72475ZM128.911 15.9561C128.099 15.9561 127.313 16.2181 126.553 16.7421C125.793 17.2661 125.204 18.0259 124.784 19.0215V33.0912C124.837 33.4842 124.955 33.9034 125.138 34.3488C125.321 34.7942 125.57 35.2003 125.885 35.5671C126.225 35.9339 126.632 36.2352 127.103 36.471C127.601 36.6806 128.164 36.7723 128.793 36.7461C129.893 36.6937 130.771 36.2876 131.426 35.5278C132.107 34.7418 132.618 33.8117 132.959 32.7375C133.326 31.6371 133.562 30.4973 133.666 29.3183C133.771 28.1131 133.824 27.0651 133.824 26.1743C133.824 25.362 133.784 24.3795 133.706 23.2267C133.627 22.0477 133.417 20.9211 133.077 19.8468C132.762 18.7726 132.278 17.8556 131.623 17.0958C130.968 16.336 130.064 15.9561 128.911 15.9561Z" fill="white"/>
<path d="M144.82 26.135C144.82 24.2747 145.095 22.5979 145.646 21.1045C146.222 19.611 147.034 18.3403 148.082 17.2923C149.157 16.2443 150.44 15.4452 151.934 14.895C153.453 14.3186 155.143 14.0303 157.004 14.0303C158.864 14.0303 160.541 14.3186 162.034 14.895C163.554 15.4452 164.837 16.2443 165.886 17.2923C166.96 18.3403 167.772 19.611 168.322 21.1045C168.899 22.5979 169.187 24.2747 169.187 26.135C169.187 28.0476 168.912 29.7637 168.361 31.2833C167.811 32.7768 167.012 34.0475 165.964 35.0955C164.916 36.1435 163.632 36.9426 162.113 37.4929C160.619 38.0431 158.916 38.3182 157.004 38.3182C155.091 38.3182 153.375 38.0431 151.855 37.4929C150.362 36.9426 149.091 36.1435 148.043 35.0955C146.995 34.0475 146.196 32.7768 145.646 31.2833C145.095 29.7637 144.82 28.0476 144.82 26.135ZM152.68 26.1743C152.68 26.6197 152.68 27.2092 152.68 27.9428C152.707 28.6502 152.759 29.41 152.838 30.2222C152.942 31.0344 153.087 31.8598 153.27 32.6982C153.453 33.5104 153.702 34.244 154.017 34.899C154.331 35.554 154.724 36.0911 155.196 36.5103C155.694 36.9295 156.296 37.1391 157.004 37.1391C157.711 37.1391 158.3 36.9295 158.772 36.5103C159.27 36.0911 159.676 35.554 159.99 34.899C160.305 34.244 160.554 33.5104 160.737 32.6982C160.921 31.8598 161.052 31.0344 161.13 30.2222C161.235 29.41 161.287 28.6502 161.287 27.9428C161.314 27.2092 161.327 26.6197 161.327 26.1743C161.327 25.7289 161.314 25.1524 161.287 24.445C161.287 23.7114 161.235 22.9385 161.13 22.1263C161.052 21.3141 160.921 20.5019 160.737 19.6896C160.554 18.8512 160.305 18.1045 159.99 17.4495C159.676 16.7945 159.27 16.2574 158.772 15.8382C158.3 15.419 157.711 15.2094 157.004 15.2094C156.296 15.2094 155.694 15.419 155.196 15.8382C154.724 16.2574 154.331 16.7945 154.017 17.4495C153.702 18.1045 153.453 18.8512 153.27 19.6896C153.087 20.5019 152.942 21.3141 152.838 22.1263C152.759 22.9385 152.707 23.7114 152.68 24.445C152.68 25.1524 152.68 25.7289 152.68 26.1743Z" fill="white"/>
<path d="M170.677 38.0038V37.5322C171.463 37.2178 172.105 36.7723 172.603 36.1959C173.101 35.5933 173.35 34.7025 173.35 33.5235V22.087C173.35 21.2486 173.179 20.4364 172.839 19.6503C172.524 18.8643 171.922 18.3665 171.031 18.1569V17.3709C171.555 17.3709 172.249 17.253 173.114 17.0172C174.005 16.7552 174.908 16.4539 175.826 16.1133C176.769 15.7727 177.62 15.419 178.38 15.0522C179.166 14.6592 179.716 14.3186 180.031 14.0303L180.817 14.3448V18.432C181.577 16.991 182.611 15.8906 183.921 15.1308C185.231 14.3448 186.607 13.9779 188.048 14.0303C188.913 14.0565 189.659 14.2007 190.288 14.4627C190.917 14.7247 191.428 15.0653 191.821 15.4845C192.214 15.9037 192.502 16.3622 192.686 16.86C192.895 17.3578 193 17.8556 193 18.3534C193 19.4014 192.672 20.3054 192.017 21.0652C191.362 21.825 190.419 22.1918 189.188 22.1656C188.664 22.1656 188.218 22.0739 187.852 21.8905C187.511 21.7071 187.236 21.4713 187.026 21.1831C186.817 20.8949 186.659 20.5674 186.555 20.2006C186.476 19.8075 186.424 19.4014 186.397 18.9822C186.371 18.3796 186.253 17.8818 186.044 17.4888C185.834 17.0958 185.441 16.8993 184.865 16.8993C184.419 16.8993 183.961 17.122 183.489 17.5674C183.018 17.9866 182.585 18.5499 182.192 19.2573C181.799 19.9648 181.472 20.777 181.21 21.694C180.948 22.5848 180.817 23.5149 180.817 24.4843V33.5235C180.817 34.7025 181.066 35.5933 181.563 36.1959C182.061 36.7723 182.703 37.2178 183.489 37.5322V38.0038H170.677Z" fill="white"/>
<path d="M0 11.4217C0 5.11369 5.11369 0 11.4217 0H27.9198C34.2279 0 39.3416 5.11369 39.3416 11.4217V26.7277C39.3416 33.0357 34.2279 38.1494 27.9198 38.1494H11.4217C5.11369 38.1494 0 33.0357 0 26.7277V11.4217Z" fill="#F03209"/>
<path d="M37.2599 33.7733C35.3067 36.4278 32.1606 38.1503 28.6122 38.1503H25.0584C24.8854 38.0106 24.7073 37.8737 24.5241 37.7394C23.2161 36.7808 21.7189 35.9078 20.0323 35.1203C18.3802 34.3329 16.6764 33.5454 14.921 32.758C13.2 31.9706 11.4963 31.1489 9.80971 30.293C8.15757 29.437 6.67753 28.4442 5.36958 27.3144C4.06164 26.1846 3.01184 24.8836 2.22019 23.4114C1.42854 21.905 1.03271 20.1589 1.03271 18.1732C1.03271 15.4343 1.63506 13.1917 2.83974 11.4457C4.04443 9.69961 5.59331 8.33014 7.48638 7.33728C9.37946 6.34442 11.4791 5.6768 13.7852 5.33444C16.1257 4.95783 18.4318 4.76953 20.7035 4.76953C21.977 4.76953 23.3538 4.87224 24.8338 5.07766C26.3139 5.24885 27.7595 5.5741 29.1707 6.05341C30.5819 6.49849 31.8899 7.11474 33.0945 7.90219C34.2992 8.65539 35.263 9.61402 35.9858 10.7781C36.3988 11.4286 36.743 12.1133 37.0184 12.8323C37.3282 13.5512 37.483 14.3044 37.483 15.0919C37.483 16.4613 37.0184 17.5398 36.089 18.3272C35.1597 19.0805 34.0411 19.4571 32.7331 19.4571C31.2187 19.4571 30.0828 19.1318 29.3256 18.4813C28.5684 17.8308 27.966 17.0263 27.5186 16.0676C27.1055 15.0748 26.7613 14.0134 26.486 12.8836C26.2106 11.7196 25.7976 10.6582 25.2469 9.69961C24.7306 8.70675 23.9734 7.88507 22.9752 7.23457C22.0114 6.58408 20.6175 6.25883 18.7932 6.25883C17.6574 6.25883 16.6076 6.43001 15.6438 6.77238C14.7145 7.08051 13.9056 7.55982 13.2172 8.21032C12.5289 8.82658 11.9781 9.5969 11.5651 10.5213C11.1865 11.4114 10.9972 12.4385 10.9972 13.6026C10.9972 15.3144 11.393 16.7695 12.1847 17.9678C13.0107 19.166 14.0777 20.2103 15.3857 21.1004C16.728 21.9906 18.2425 22.7951 19.9291 23.5141C21.65 24.1988 23.3882 24.9007 25.1436 25.6196C26.9334 26.3386 28.6716 27.1261 30.3582 27.982C32.0792 28.8379 33.5936 29.865 34.9016 31.0633C35.8153 31.8556 36.6014 32.7589 37.2599 33.7733Z" fill="#09090B"/>
</svg>
