<svg width="21" height="21" viewBox="0 0 21 21" fill="none" xmlns="http://www.w3.org/2000/svg">
<path d="M10.0447 6.82373C11.9052 6.82373 13.4408 8.35936 13.4408 10.2198C13.4408 12.1098 11.9052 13.6159 10.0447 13.6159C8.15469 13.6159 6.64859 12.1098 6.64859 10.2198C6.64859 8.35936 8.15469 6.82373 10.0447 6.82373ZM10.0447 12.4347C11.2555 12.4347 12.23 11.4601 12.23 10.2198C12.23 9.00904 11.2555 8.03451 10.0447 8.03451C8.80437 8.03451 7.82984 9.00904 7.82984 10.2198C7.82984 11.4601 8.83391 12.4347 10.0447 12.4347ZM14.3562 6.70561C14.3562 6.26264 14.0019 5.90826 13.5589 5.90826C13.1159 5.90826 12.7616 6.26264 12.7616 6.70561C12.7616 7.14857 13.1159 7.50295 13.5589 7.50295C14.0019 7.50295 14.3562 7.14857 14.3562 6.70561ZM16.6006 7.50295C16.6597 8.59561 16.6597 11.8736 16.6006 12.9662C16.5416 14.0294 16.3053 14.9448 15.5375 15.7422C14.7697 16.51 13.8247 16.7462 12.7616 16.8053C11.6689 16.8644 8.39094 16.8644 7.29828 16.8053C6.23516 16.7462 5.31969 16.51 4.52234 15.7422C3.75453 14.9448 3.51828 14.0294 3.45922 12.9662C3.40016 11.8736 3.40016 8.59561 3.45922 7.50295C3.51828 6.43982 3.75453 5.49482 4.52234 4.72701C5.31969 3.9592 6.23516 3.72295 7.29828 3.66389C8.39094 3.60482 11.6689 3.60482 12.7616 3.66389C13.8247 3.72295 14.7697 3.9592 15.5375 4.72701C16.3053 5.49482 16.5416 6.43982 16.6006 7.50295ZM15.1831 14.1179C15.5375 13.2615 15.4489 11.1944 15.4489 10.2198C15.4489 9.27482 15.5375 7.20764 15.1831 6.3217C14.9469 5.76061 14.5039 5.28811 13.9428 5.08139C13.0569 4.72701 10.9897 4.81561 10.0447 4.81561C9.07016 4.81561 7.00297 4.72701 6.14656 5.08139C5.55594 5.31764 5.11297 5.76061 4.87672 6.3217C4.52234 7.20764 4.61094 9.27482 4.61094 10.2198C4.61094 11.1944 4.52234 13.2615 4.87672 14.1179C5.11297 14.7086 5.55594 15.1515 6.14656 15.3878C7.00297 15.7422 9.07016 15.6536 10.0447 15.6536C10.9897 15.6536 13.0569 15.7422 13.9428 15.3878C14.5039 15.1515 14.9764 14.7086 15.1831 14.1179Z" fill="#09090B"/>
</svg>
