<svg width="40" height="40" viewBox="0 0 40 40" fill="none" xmlns="http://www.w3.org/2000/svg">
<rect x="0.5" y="0.5" width="39" height="39" rx="19.5" fill="white"/>
<g clip-path="url(#clip0_404_2422)">
<path d="M23.3333 23.3333H24.6667C25.0203 23.3333 25.3594 23.1929 25.6095 22.9428C25.8595 22.6928 26 22.3536 26 22V19.3333C26 18.9797 25.8595 18.6406 25.6095 18.3905C25.3594 18.1405 25.0203 18 24.6667 18H15.3333C14.9797 18 14.6406 18.1405 14.3905 18.3905C14.1405 18.6406 14 18.9797 14 19.3333V22C14 22.3536 14.1405 22.6928 14.3905 22.9428C14.6406 23.1929 14.9797 23.3333 15.3333 23.3333H16.6667" stroke="#09090B" stroke-width="1.2" stroke-linecap="round" stroke-linejoin="round"/>
<path d="M23.3337 18V15.3333C23.3337 14.9797 23.1932 14.6406 22.9431 14.3905C22.6931 14.1405 22.3539 14 22.0003 14H18.0003C17.6467 14 17.3076 14.1405 17.0575 14.3905C16.8075 14.6406 16.667 14.9797 16.667 15.3333V18" stroke="#09090B" stroke-width="1.2" stroke-linecap="round" stroke-linejoin="round"/>
<path d="M16.667 21.9998C16.667 21.6462 16.8075 21.3071 17.0575 21.057C17.3076 20.807 17.6467 20.6665 18.0003 20.6665H22.0003C22.3539 20.6665 22.6931 20.807 22.9431 21.057C23.1932 21.3071 23.3337 21.6462 23.3337 21.9998V24.6665C23.3337 25.0201 23.1932 25.3593 22.9431 25.6093C22.6931 25.8594 22.3539 25.9998 22.0003 25.9998H18.0003C17.6467 25.9998 17.3076 25.8594 17.0575 25.6093C16.8075 25.3593 16.667 25.0201 16.667 24.6665V21.9998Z" stroke="#09090B" stroke-width="1.2" stroke-linecap="round" stroke-linejoin="round"/>
</g>
<rect x="0.5" y="0.5" width="39" height="39" rx="19.5" stroke="#09090B"/>
<defs>
<clipPath id="clip0_404_2422">
<rect width="16" height="16" fill="white" transform="translate(12 12)"/>
</clipPath>
</defs>
</svg>
