<svg width="36" height="30" viewBox="0 0 36 30" fill="none" xmlns="http://www.w3.org/2000/svg">
<path d="M0.552 20.736C0.552 17.92 1.16 15.232 2.376 12.672C3.592 10.112 5.192 7.776 7.176 5.664C9.224 3.488 11.432 1.632 13.8 0.0959988L15.624 2.68799C13.32 4.544 11.432 6.304 9.96 7.96799C8.552 9.568 7.304 11.648 6.216 14.208L9 16.704C10.472 17.92 11.464 19.104 11.976 20.256C12.488 21.408 12.744 22.592 12.744 23.808C12.744 25.728 12.232 27.168 11.208 28.128C10.184 29.024 8.808 29.472 7.08 29.472C6.12 29.472 5.192 29.344 4.296 29.088C3.464 28.768 2.664 28.256 1.896 27.552C1 25.376 0.552 23.104 0.552 20.736ZM20.04 20.736C20.04 17.92 20.648 15.232 21.864 12.672C23.08 10.112 24.68 7.776 26.664 5.664C28.712 3.488 30.92 1.632 33.288 0.0959988L35.112 2.68799C32.808 4.544 30.92 6.304 29.448 7.96799C28.04 9.568 26.792 11.648 25.704 14.208L28.488 16.704C29.96 17.92 30.952 19.104 31.464 20.256C31.976 21.408 32.232 22.592 32.232 23.808C32.232 25.728 31.72 27.168 30.696 28.128C29.672 29.024 28.296 29.472 26.568 29.472C25.608 29.472 24.68 29.344 23.784 29.088C22.952 28.768 22.152 28.256 21.384 27.552C20.488 25.376 20.04 23.104 20.04 20.736Z" fill="#F03209"/>
</svg>
