<svg width="138" height="28" viewBox="0 0 138 28" fill="none" xmlns="http://www.w3.org/2000/svg">
<path d="M49.657 0.811157C49.0416 0.811157 48.4729 0.904394 47.9508 1.09087C47.4473 1.25869 47.0091 1.51975 46.6361 1.87405C46.2632 2.2097 45.9648 2.62927 45.7411 3.13274C45.5359 3.61757 45.4334 4.17699 45.4334 4.811C45.4334 5.74336 45.6478 6.53587 46.0767 7.18852C46.5243 7.84118 47.1023 8.40992 47.8109 8.89475C48.5382 9.37957 49.3586 9.81779 50.2724 10.2094C51.2047 10.5823 52.1464 10.9646 53.0974 11.3562C54.0671 11.7478 55.0088 12.1767 55.9225 12.6428C56.8548 13.109 57.6753 13.6684 58.3839 14.3211C59.1112 14.9551 59.6892 15.7196 60.1181 16.6147C60.5656 17.4911 60.7894 18.554 60.7894 19.8034C60.7894 21.2952 60.4724 22.5259 59.8384 23.4956C59.223 24.4466 58.4119 25.2018 57.4049 25.7612C56.398 26.3206 55.2698 26.7122 54.0205 26.936C52.7897 27.1597 51.559 27.2716 50.3283 27.2716C49.7129 27.2716 49.0137 27.2343 48.2305 27.1597C47.4659 27.1038 46.6828 26.9919 45.8809 26.8241C45.0791 26.6563 44.2866 26.4325 43.5034 26.1528C42.7389 25.8544 42.0582 25.4908 41.4615 25.0619C40.8648 24.6144 40.38 24.0923 40.007 23.4956C39.6527 22.8802 39.4756 22.1623 39.4756 21.3418C39.4756 20.857 39.5502 20.4094 39.6994 19.9992C39.8672 19.589 40.0909 19.2253 40.3707 18.9083C40.669 18.5913 41.0233 18.3489 41.4335 18.1811C41.8438 17.9946 42.2913 17.9014 42.7762 17.9014C43.522 17.9014 44.1281 18.1345 44.5943 18.6006C45.0791 19.0482 45.3215 19.6542 45.3215 20.4188C45.3215 21.3138 45.4241 22.1343 45.6292 22.8802C45.8343 23.6074 46.1513 24.2414 46.5802 24.7822C47.0091 25.3043 47.5592 25.7146 48.2305 26.0129C48.9018 26.2926 49.7129 26.4325 50.6639 26.4325C51.298 26.4325 51.8853 26.3299 52.4261 26.1248C52.9669 25.9197 53.4331 25.6307 53.8247 25.2577C54.2349 24.8848 54.5519 24.4372 54.7757 23.9151C54.9994 23.3743 55.1113 22.7776 55.1113 22.125C55.1113 21.2113 54.8969 20.4188 54.468 19.7475C54.0391 19.0762 53.4704 18.4794 52.7618 17.9573C52.0532 17.4352 51.242 16.9597 50.3283 16.5308C49.4332 16.1019 48.5102 15.673 47.5592 15.2441C46.6268 14.8153 45.7038 14.3677 44.7901 13.9015C43.895 13.4354 43.0932 12.8946 42.3846 12.2792C41.676 11.6639 41.1072 10.9553 40.6783 10.1534C40.2494 9.33296 40.035 8.38195 40.035 7.30041C40.035 5.80863 40.3613 4.58723 41.014 3.63622C41.6666 2.68521 42.5058 1.93932 43.5314 1.39855C44.557 0.857775 45.6944 0.494154 46.9438 0.307681C48.2118 0.10256 49.4612 0 50.6919 0C51.3819 0 52.1278 0.0559423 52.9296 0.167827C53.7314 0.261063 54.5146 0.438212 55.2791 0.699274C56.0437 0.941689 56.7523 1.27734 57.4049 1.70623C58.0576 2.11647 58.5797 2.63859 58.9713 3.2726C59.1951 3.62689 59.3815 3.99984 59.5307 4.39143C59.6985 4.78302 59.7825 5.19326 59.7825 5.62215C59.7825 6.36804 59.5307 6.95543 59.0272 7.38432C58.5238 7.79456 57.9177 7.99968 57.2091 7.99968C56.3887 7.99968 55.7733 7.82253 55.3631 7.46823C54.9528 7.11393 54.6265 6.67572 54.3841 6.1536C54.1603 5.61283 53.9738 5.03476 53.8247 4.4194C53.6755 3.7854 53.4517 3.20733 53.1534 2.68521C52.8736 2.14444 52.4634 1.6969 51.9226 1.3426C51.4005 0.988307 50.6453 0.811157 49.657 0.811157Z" fill="#09090B"/>
<path d="M62.8081 22.9921C62.8081 22.097 62.9853 21.3325 63.3396 20.6985C63.6939 20.0645 64.16 19.533 64.7381 19.1041C65.3162 18.6566 65.9688 18.3116 66.6961 18.0692C67.442 17.8081 68.1972 17.6123 68.9617 17.4818C69.5025 17.3886 70.006 17.2674 70.4721 17.1182C70.9383 16.9504 71.3392 16.7266 71.6749 16.4469C72.0292 16.1485 72.2996 15.7849 72.4861 15.356C72.6912 14.9271 72.7937 14.405 72.7937 13.7897C72.7937 13.4354 72.7471 13.0811 72.6539 12.7268C72.5793 12.3725 72.4488 12.0555 72.2623 11.7758C72.0945 11.496 71.8707 11.2723 71.591 11.1044C71.3113 10.918 70.9663 10.8247 70.5561 10.8247C69.8661 10.8247 69.2974 11.0112 68.8498 11.3842C68.4023 11.7385 68.1785 12.2792 68.1785 13.0065C68.1785 13.3608 68.2345 13.6964 68.3464 14.0134C68.4769 14.3118 68.5422 14.6288 68.5422 14.9644C68.5422 15.2628 68.4676 15.5332 68.3184 15.7756C68.1692 15.9994 67.9734 16.1858 67.731 16.335C67.4886 16.4842 67.2182 16.5961 66.9198 16.6707C66.6401 16.7452 66.3697 16.7825 66.1087 16.7825C65.4374 16.7825 64.85 16.5681 64.3465 16.1392C63.8617 15.7103 63.6193 15.1416 63.6193 14.433C63.6193 13.5752 63.8803 12.8666 64.4025 12.3072C64.9432 11.7291 65.5959 11.2723 66.3604 10.9366C67.1436 10.5823 67.9641 10.3399 68.8219 10.2094C69.6796 10.0602 70.4442 9.98561 71.1155 9.98561C72.0105 9.98561 72.8776 10.0788 73.7168 10.2653C74.5745 10.4331 75.3204 10.7315 75.9544 11.1604C76.6071 11.5706 77.1292 12.13 77.5208 12.8386C77.9124 13.5286 78.1082 14.3957 78.1082 15.4399V22.4327C78.1082 22.6378 78.1269 22.8522 78.1641 23.076C78.2201 23.2998 78.2947 23.5049 78.3879 23.6914C78.4998 23.8778 78.6397 24.0363 78.8075 24.1669C78.9753 24.2787 79.1804 24.3347 79.4228 24.3347C79.7025 24.3347 79.9543 24.2508 80.1781 24.0829C80.4205 23.9151 80.6163 23.7193 80.7654 23.4956L81.185 23.7193C80.8307 24.8568 80.206 25.6959 79.311 26.2367C78.4345 26.7775 77.4183 27.0479 76.2621 27.0479C75.5908 27.0479 74.9382 26.9267 74.3042 26.6842C73.6702 26.4418 73.2133 25.9756 72.9336 25.2857C72.542 25.4908 72.1411 25.7146 71.7308 25.957C71.3206 26.1994 70.901 26.4232 70.4721 26.6283C70.0433 26.8148 69.605 26.9733 69.1575 27.1038C68.7286 27.2343 68.2811 27.2996 67.8149 27.2996C67.125 27.2996 66.4723 27.2157 65.8569 27.0479C65.2602 26.8987 64.7288 26.6469 64.2626 26.2926C63.8151 25.9383 63.4608 25.4908 63.1997 24.95C62.9387 24.4093 62.8081 23.7566 62.8081 22.9921ZM70.9197 24.978C71.274 24.978 71.6003 24.9127 71.8987 24.7822C72.2157 24.633 72.514 24.4559 72.7937 24.2508V17.0902C72.1784 17.258 71.6003 17.4911 71.0595 17.7895C70.5374 18.0692 70.0806 18.4142 69.689 18.8244C69.2974 19.216 68.9804 19.6822 68.738 20.223C68.5142 20.7637 68.4023 21.3791 68.4023 22.069C68.4023 22.8522 68.6074 23.5329 69.0177 24.1109C69.4279 24.689 70.0619 24.978 70.9197 24.978Z" fill="#09090B"/>
<path d="M83.4965 6.20954C83.4965 5.59418 83.3101 5.0907 82.9371 4.69911C82.5828 4.28887 82.1166 3.99984 81.5386 3.83201V3.2726C81.8742 3.2353 82.3684 3.10477 83.021 2.881C83.6923 2.63859 84.373 2.3682 85.0629 2.06985C85.7715 1.75284 86.4242 1.42652 87.0209 1.09087C87.6176 0.755215 88.0278 0.466183 88.2516 0.223768L88.811 0.447536V11.9156C89.0348 11.5613 89.3052 11.2629 89.6222 11.0205C89.9392 10.7781 90.2841 10.5823 90.6571 10.4331C91.03 10.2653 91.4123 10.1534 91.8039 10.0975C92.2141 10.0229 92.615 9.98561 93.0066 9.98561C94.3306 9.98561 95.4774 10.2094 96.4471 10.6569C97.4354 11.0858 98.2465 11.6825 98.8805 12.4471C99.5332 13.2116 100.018 14.1253 100.335 15.1882C100.671 16.2324 100.838 17.3699 100.838 18.6006C100.838 19.8873 100.661 21.0621 100.307 22.125C99.9527 23.1879 99.4306 24.1016 98.7407 24.8661C98.0507 25.6307 97.193 26.2274 96.1674 26.6563C95.1604 27.0665 93.9949 27.2716 92.671 27.2716C91.72 27.2716 90.8063 27.1411 89.9298 26.88C89.0534 26.619 88.2609 26.1714 87.5523 25.5374L83.8602 27.0479H83.4965V6.20954ZM91.7479 11.3562C91.1699 11.3562 90.6105 11.5427 90.0697 11.9156C89.5289 12.2885 89.1094 12.8293 88.811 13.5379V23.5515C88.8483 23.8312 88.9322 24.1296 89.0627 24.4466C89.1933 24.7636 89.3704 25.0526 89.5942 25.3137C89.8366 25.5747 90.1256 25.7892 90.4613 25.957C90.8156 26.1062 91.2165 26.1714 91.664 26.1528C92.4472 26.1155 93.0719 25.8265 93.5381 25.2857C94.0229 24.7263 94.3865 24.0643 94.629 23.2998C94.89 22.5166 95.0578 21.7054 95.1324 20.8663C95.207 20.0085 95.2443 19.2626 95.2443 18.6286C95.2443 18.0506 95.2163 17.3513 95.1604 16.5308C95.1045 15.6917 94.9553 14.8898 94.7129 14.1253C94.4891 13.3608 94.1441 12.7081 93.6779 12.1673C93.2118 11.6266 92.5684 11.3562 91.7479 11.3562Z" fill="#09090B"/>
<path d="M103.071 18.6006C103.071 17.2767 103.267 16.0833 103.658 15.0204C104.069 13.9575 104.647 13.0531 105.393 12.3072C106.157 11.5613 107.071 10.9926 108.134 10.601C109.215 10.1907 110.418 9.98561 111.742 9.98561C113.066 9.98561 114.259 10.1907 115.322 10.601C116.404 10.9926 117.317 11.5613 118.063 12.3072C118.828 13.0531 119.406 13.9575 119.798 15.0204C120.208 16.0833 120.413 17.2767 120.413 18.6006C120.413 19.9619 120.217 21.1833 119.825 22.2648C119.434 23.3277 118.865 24.2321 118.119 24.978C117.373 25.7239 116.46 26.2926 115.378 26.6842C114.315 27.0758 113.103 27.2716 111.742 27.2716C110.381 27.2716 109.159 27.0758 108.078 26.6842C107.015 26.2926 106.11 25.7239 105.365 24.978C104.619 24.2321 104.05 23.3277 103.658 22.2648C103.267 21.1833 103.071 19.9619 103.071 18.6006ZM108.665 18.6286C108.665 18.9456 108.665 19.3652 108.665 19.8873C108.684 20.3908 108.721 20.9316 108.777 21.5096C108.852 22.0877 108.954 22.6751 109.085 23.2718C109.215 23.8499 109.392 24.372 109.616 24.8382C109.84 25.3043 110.12 25.6866 110.455 25.985C110.81 26.2833 111.238 26.4325 111.742 26.4325C112.245 26.4325 112.665 26.2833 113.001 25.985C113.355 25.6866 113.644 25.3043 113.868 24.8382C114.091 24.372 114.269 23.8499 114.399 23.2718C114.53 22.6751 114.623 22.0877 114.679 21.5096C114.753 20.9316 114.791 20.3908 114.791 19.8873C114.809 19.3652 114.819 18.9456 114.819 18.6286C114.819 18.3116 114.809 17.9014 114.791 17.3979C114.791 16.8758 114.753 16.3257 114.679 15.7476C114.623 15.1696 114.53 14.5915 114.399 14.0134C114.269 13.4167 114.091 12.8853 113.868 12.4191C113.644 11.9529 113.355 11.5706 113.001 11.2723C112.665 10.9739 112.245 10.8247 111.742 10.8247C111.238 10.8247 110.81 10.9739 110.455 11.2723C110.12 11.5706 109.84 11.9529 109.616 12.4191C109.392 12.8853 109.215 13.4167 109.085 14.0134C108.954 14.5915 108.852 15.1696 108.777 15.7476C108.721 16.3257 108.684 16.8758 108.665 17.3979C108.665 17.9014 108.665 18.3116 108.665 18.6286Z" fill="#09090B"/>
<path d="M121.474 27.0479V26.7122C122.033 26.4884 122.49 26.1714 122.844 25.7612C123.198 25.3323 123.376 24.6983 123.376 23.8592V15.7196C123.376 15.1229 123.254 14.5449 123.012 13.9854C122.788 13.426 122.359 13.0717 121.725 12.9226V12.3631C122.098 12.3631 122.592 12.2792 123.208 12.1114C123.842 11.9249 124.485 11.7105 125.138 11.4681C125.809 11.2257 126.415 10.9739 126.956 10.7129C127.515 10.4331 127.907 10.1907 128.131 9.98561L128.69 10.2094V13.1184C129.231 12.0928 129.967 11.3096 130.9 10.7688C131.832 10.2094 132.811 9.94832 133.837 9.98561C134.452 10.0043 134.984 10.1068 135.431 10.2933C135.879 10.4798 136.242 10.7222 136.522 11.0205C136.802 11.3189 137.007 11.6452 137.137 11.9995C137.286 12.3538 137.361 12.7081 137.361 13.0624C137.361 13.8083 137.128 14.4516 136.662 14.9924C136.196 15.5332 135.524 15.7942 134.648 15.7756C134.275 15.7756 133.958 15.7103 133.697 15.5798C133.454 15.4493 133.259 15.2814 133.109 15.0763C132.96 14.8712 132.848 14.6381 132.774 14.377C132.718 14.0973 132.681 13.8083 132.662 13.5099C132.643 13.0811 132.559 12.7268 132.41 12.4471C132.261 12.1673 131.981 12.0275 131.571 12.0275C131.254 12.0275 130.928 12.186 130.592 12.503C130.256 12.8013 129.949 13.2023 129.669 13.7057C129.389 14.2092 129.156 14.7873 128.97 15.4399C128.783 16.0739 128.69 16.7359 128.69 17.4259V23.8592C128.69 24.6983 128.867 25.3323 129.222 25.7612C129.576 26.1714 130.033 26.4884 130.592 26.7122V27.0479H121.474Z" fill="#09090B"/>
<path d="M0 8.12903C0 3.63949 3.63949 0 8.12903 0H19.871C24.3605 0 28 3.63949 28 8.12903V19.0225C28 23.512 24.3605 27.1515 19.871 27.1515H8.12903C3.63949 27.1515 0 23.512 0 19.0225V8.12903Z" fill="#F03209"/>
<path d="M26.5183 24.036C25.1282 25.9252 22.889 27.1511 20.3636 27.1511H17.8343C17.7112 27.0518 17.5844 26.9543 17.454 26.8587C16.5231 26.1765 15.4575 25.5551 14.2572 24.9947C13.0813 24.4342 11.8687 23.8738 10.6194 23.3134C9.39453 22.7529 8.18193 22.1681 6.98158 21.559C5.80573 20.9498 4.75236 20.2432 3.82148 19.4391C2.89059 18.635 2.14344 17.709 1.58001 16.6612C1.01658 15.5891 0.734863 14.3464 0.734863 12.9331C0.734863 10.9838 1.16356 9.38778 2.02095 8.14507C2.87835 6.90237 3.98071 5.9277 5.32804 5.22106C6.67537 4.51443 8.16968 4.03927 9.81098 3.79561C11.4768 3.52757 13.1181 3.39355 14.7349 3.39355C15.6412 3.39355 16.6211 3.46666 17.6745 3.61286C18.7279 3.73469 19.7567 3.96618 20.7611 4.30731C21.7655 4.62408 22.6964 5.06268 23.5538 5.62311C24.4112 6.15918 25.0971 6.84145 25.6115 7.66992C25.9055 8.13289 26.1504 8.62022 26.3464 9.13192C26.5669 9.64363 26.6771 10.1797 26.6771 10.7401C26.6771 11.7148 26.3464 12.4824 25.685 13.0428C25.0236 13.5789 24.2274 13.8469 23.2965 13.8469C22.2187 13.8469 21.4103 13.6154 20.8713 13.1524C20.3324 12.6895 19.9037 12.1168 19.5853 11.4346C19.2913 10.7279 19.0463 9.97258 18.8503 9.16847C18.6544 8.34 18.3604 7.58464 17.9685 6.90237C17.601 6.19573 17.0621 5.61093 16.3517 5.14796C15.6657 4.68499 14.6736 4.45351 13.3753 4.45351C12.5669 4.45351 11.8197 4.57534 11.1338 4.81901C10.4724 5.03831 9.89672 5.37945 9.40678 5.84241C8.91684 6.28102 8.52489 6.82927 8.23093 7.48717C7.96146 8.1207 7.82673 8.85171 7.82673 9.68018C7.82673 10.8985 8.10844 11.9341 8.67187 12.7869C9.2598 13.6398 10.0192 14.383 10.9501 15.0165C11.9055 15.65 12.9833 16.2226 14.1837 16.7343C15.4085 17.2217 16.6456 17.7212 17.895 18.2329C19.1688 18.7446 20.4059 19.305 21.6063 19.9142C22.8311 20.5234 23.909 21.2544 24.8398 22.1072C25.4901 22.6711 26.0496 23.314 26.5183 24.036Z" fill="white"/>
</svg>
