<svg width="17" height="17" viewBox="0 0 17 17" fill="none" xmlns="http://www.w3.org/2000/svg">
<g clip-path="url(#clip0_402_1309)">
<path d="M2.125 8.5C2.125 9.33718 2.28989 10.1662 2.61027 10.9396C2.93064 11.7131 3.40022 12.4158 3.99219 13.0078C4.58417 13.5998 5.28694 14.0694 6.06039 14.3897C6.83384 14.7101 7.66282 14.875 8.5 14.875C9.33718 14.875 10.1662 14.7101 10.9396 14.3897C11.7131 14.0694 12.4158 13.5998 13.0078 13.0078C13.5998 12.4158 14.0694 11.7131 14.3897 10.9396C14.7101 10.1662 14.875 9.33718 14.875 8.5C14.875 7.66282 14.7101 6.83384 14.3897 6.06039C14.0694 5.28694 13.5998 4.58417 13.0078 3.99219C12.4158 3.40022 11.7131 2.93064 10.9396 2.61027C10.1662 2.28989 9.33718 2.125 8.5 2.125C7.66282 2.125 6.83384 2.28989 6.06039 2.61027C5.28694 2.93064 4.58417 3.40022 3.99219 3.99219C3.40022 4.58417 2.93064 5.28694 2.61027 6.06039C2.28989 6.83384 2.125 7.66282 2.125 8.5Z" stroke="white" stroke-width="1.2" stroke-linecap="round" stroke-linejoin="round"/>
<path d="M6.375 6.375H6.38208" stroke="white" stroke-width="1.2" stroke-linecap="round" stroke-linejoin="round"/>
<path d="M10.625 6.375H10.6321" stroke="white" stroke-width="1.2" stroke-linecap="round" stroke-linejoin="round"/>
<path d="M5.6665 9.20831C5.6665 9.95976 5.96501 10.6804 6.49637 11.2118C7.02772 11.7431 7.74839 12.0416 8.49984 12.0416C9.25128 12.0416 9.97195 11.7431 10.5033 11.2118C11.0347 10.6804 11.3332 9.95976 11.3332 9.20831H5.6665Z" stroke="white" stroke-width="1.2" stroke-linecap="round" stroke-linejoin="round"/>
</g>
<defs>
<clipPath id="clip0_402_1309">
<rect width="17" height="17" fill="white"/>
</clipPath>
</defs>
</svg>
