<svg width="21" height="21" viewBox="0 0 21 21" fill="none" xmlns="http://www.w3.org/2000/svg">
<path d="M16.3799 8.86147C15.051 8.89101 13.8107 8.47757 12.7476 7.70976V12.9958C12.7476 16.6873 8.73131 18.9907 5.54193 17.1598C2.35256 15.2993 2.35256 10.6924 5.54193 8.83194C6.4574 8.30038 7.55006 8.09366 8.61318 8.24132V10.8991C6.98896 10.3676 5.42381 11.8146 5.77818 13.4683C6.16209 15.1221 8.17021 15.7718 9.44006 14.6201C9.88303 14.2066 10.1488 13.616 10.1488 12.9958V2.65991H12.7476C12.7476 2.89616 12.7476 3.10288 12.8066 3.33913C12.9838 4.31366 13.5449 5.17007 14.4013 5.70163C14.9624 6.08554 15.6712 6.29226 16.3799 6.29226V8.86147Z" fill="#09090B"/>
</svg>
