<svg width="21" height="21" viewBox="0 0 21 21" fill="none" xmlns="http://www.w3.org/2000/svg">
<path d="M18.0325 6.35123C18.3869 7.59154 18.3869 10.2494 18.3869 10.2494C18.3869 10.2494 18.3869 12.8776 18.0325 14.1475C17.8553 14.8562 17.2942 15.3878 16.615 15.565C15.3451 15.8898 10.3248 15.8898 10.3248 15.8898C10.3248 15.8898 5.27498 15.8898 4.00514 15.565C3.32592 15.3878 2.76482 14.8562 2.58764 14.1475C2.23326 12.8776 2.23326 10.2494 2.23326 10.2494C2.23326 10.2494 2.23326 7.59154 2.58764 6.35123C2.76482 5.64248 3.32592 5.08139 4.00514 4.9042C5.27498 4.54982 10.3248 4.54982 10.3248 4.54982C10.3248 4.54982 15.3451 4.54982 16.615 4.9042C17.2942 5.08139 17.8553 5.64248 18.0325 6.35123ZM8.67107 12.6414L12.8645 10.2494L8.67107 7.85732V12.6414Z" fill="#09090B"/>
</svg>
